<svg width="26" height="26" viewBox="0 0 26 26" fill="none" xmlns="http://www.w3.org/2000/svg">
<path d="M13.0028 6.55173C9.43346 6.55173 6.55444 9.43081 6.55444 13C6.55444 16.5693 9.43346 19.4482 13.0028 19.4482C16.5721 19.4482 19.4511 16.5693 19.4511 13C19.4511 9.43081 16.572 6.55173 13.0028 6.55173ZM13.0028 17.1923C10.6962 17.1923 8.81051 15.3122 8.81051 13C8.81051 10.6879 10.6906 8.80787 13.0028 8.80787C15.3148 8.80787 17.195 10.6879 17.195 13C17.195 15.3122 15.3094 17.1923 13.0028 17.1923ZM21.2188 6.28803C21.2188 7.12426 20.5454 7.79205 19.7148 7.79205C18.8785 7.79205 18.2108 7.11862 18.2108 6.28803C18.2108 5.45744 18.8842 4.78396 19.7148 4.78396C20.5454 4.78396 21.2188 5.45738 21.2188 6.28803ZM25.4896 7.81441C25.3943 5.79978 24.9341 4.01505 23.4581 2.54472C21.9877 1.07434 20.2031 0.614146 18.1884 0.513193C16.1118 0.395342 9.88808 0.395342 7.81159 0.513193C5.80243 0.608514 4.01781 1.06876 2.54185 2.53915C1.06583 4.00953 0.611271 5.79415 0.510264 7.80883C0.392412 9.88526 0.392412 16.1091 0.510264 18.1856C0.605693 20.2004 1.06583 21.9849 2.54185 23.4554C4.01781 24.9257 5.7969 25.3859 7.81159 25.4869C9.88802 25.6047 16.1118 25.6047 18.1884 25.4869C20.2031 25.3915 21.9878 24.9312 23.4581 23.4554C24.9285 21.9849 25.3886 20.2004 25.4896 18.1856C25.6075 16.1092 25.6075 9.8909 25.4896 7.81441ZM22.807 20.4136C22.3693 21.5135 21.5219 22.3611 20.4163 22.8044C18.7607 23.4611 14.8323 23.3095 13.0027 23.3095C11.1731 23.3095 7.23907 23.4554 5.58915 22.8044C4.48916 22.3666 3.64167 21.5193 3.19837 20.4136C2.54185 18.7581 2.69344 14.8296 2.69344 13C2.69344 11.1705 2.54748 7.23647 3.19843 5.5865C3.63626 4.48651 4.48358 3.63908 5.5892 3.19578C7.24476 2.53915 11.1732 2.69069 13.0028 2.69069C14.8323 2.69069 18.7664 2.54478 20.4163 3.19578C21.5163 3.63339 22.3637 4.48094 22.8071 5.5865C23.4637 7.242 23.3122 11.1705 23.3122 13C23.3122 14.8296 23.4636 18.7637 22.807 20.4136Z" fill="white"/>
</svg>
