<svg width="34" height="26" viewBox="0 0 34 26" fill="none" xmlns="http://www.w3.org/2000/svg">
<path d="M27.9439 21.6082C27.9439 21.9901 27.6857 22.2651 27.315 22.2651C26.9332 22.2651 26.6861 21.9731 26.6861 21.6082C26.6861 21.2431 26.9333 20.9512 27.315 20.9512C27.6857 20.9512 27.9439 21.243 27.9439 21.6082ZM10.4919 20.9512C10.0932 20.9512 9.86307 21.243 9.86307 21.6082C9.86307 21.9731 10.0932 22.2651 10.4919 22.2651C10.8568 22.2651 11.1039 21.9901 11.1039 21.6082C11.0983 21.243 10.8569 20.9512 10.4919 20.9512ZM17.0897 20.9344C16.7865 20.9344 16.6013 21.1309 16.5563 21.4229H17.6288C17.5784 21.1027 17.3817 20.9344 17.0897 20.9344ZM23.1429 20.9512C22.7611 20.9512 22.5309 21.243 22.5309 21.6082C22.5309 21.9731 22.7611 22.2651 23.1429 22.2651C23.5247 22.2651 23.7718 21.9901 23.7718 21.6082C23.7719 21.243 23.5247 20.9512 23.1429 20.9512ZM29.0895 22.4167C29.0895 22.4336 29.1063 22.4448 29.1063 22.4786C29.1063 22.4954 29.0895 22.5065 29.0895 22.5403C29.0727 22.557 29.0727 22.5684 29.0614 22.5853C29.0445 22.6021 29.0334 22.6132 28.9996 22.6132C28.9827 22.6301 28.9716 22.6301 28.9378 22.6301C28.9211 22.6301 28.9097 22.6301 28.8761 22.6132C28.8593 22.6132 28.848 22.5964 28.8311 22.5853C28.8143 22.5685 28.8031 22.5571 28.8031 22.5403C28.7863 22.5122 28.7863 22.4954 28.7863 22.4786C28.7863 22.4506 28.7863 22.4336 28.8031 22.4167C28.8031 22.3887 28.82 22.3718 28.8311 22.3549C28.8479 22.3382 28.8593 22.3382 28.8761 22.3269C28.9042 22.3101 28.9211 22.3101 28.9378 22.3101C28.9659 22.3101 28.9827 22.3101 28.9996 22.3269C29.0277 22.3437 29.0445 22.3437 29.0614 22.3549C29.0783 22.3661 29.0727 22.3886 29.0895 22.4167ZM28.966 22.4954C28.9939 22.4954 28.9939 22.4786 29.0109 22.4786C29.0278 22.4617 29.0278 22.4506 29.0278 22.4336C29.0278 22.4167 29.0278 22.4054 29.0109 22.3886C28.994 22.3886 28.9828 22.3718 28.9492 22.3718H28.8594V22.5684H28.9043V22.4897H28.9211L28.9828 22.5684H29.0279L28.966 22.4954ZM33.1717 3.11723V22.8826C33.1717 24.3708 31.9645 25.5781 30.4764 25.5781H3.52341C2.03539 25.5781 0.828125 24.3708 0.828125 22.8826V3.11723C0.828125 1.62914 2.03539 0.421875 3.52341 0.421875H30.4764C31.9645 0.421875 33.1717 1.62921 33.1717 3.11723ZM4.4218 10.9561C4.4218 15.2518 7.90887 18.7331 12.1989 18.7331C13.7262 18.7331 15.2255 18.2726 16.4945 17.4361C12.401 14.1063 12.4292 7.82283 16.4945 4.49297C15.2255 3.6507 13.7262 3.19577 12.1989 3.19577C7.90887 3.19022 4.4218 6.6773 4.4218 10.9561ZM17 17.0653C20.9587 13.977 20.9419 7.95755 17 4.85233C13.0581 7.95755 13.0412 13.9827 17 17.0653ZM9.00941 21.3498C9.00941 20.8612 8.68941 20.5412 8.18408 20.5244C7.92575 20.5244 7.65069 20.603 7.46527 20.8893C7.33048 20.6592 7.10035 20.5244 6.78022 20.5244C6.56682 20.5244 6.35349 20.603 6.18502 20.8277V20.5805H5.72462V22.6414H6.18509C6.18509 21.5801 6.04475 20.9457 6.6905 20.9457C7.26327 20.9457 7.15098 21.5184 7.15098 22.6414H7.59458C7.59458 21.6139 7.45416 20.9457 8.09991 20.9457C8.67268 20.9457 8.56046 21.5071 8.56046 22.6414H9.02087V21.3499H9.00941V21.3498ZM11.5307 20.5805H11.0871V20.8277C10.9355 20.6423 10.7221 20.5244 10.4301 20.5244C9.85168 20.5244 9.40815 20.9849 9.40815 21.6082C9.40815 22.2371 9.85175 22.692 10.4301 22.692C10.7221 22.692 10.9355 22.5852 11.0871 22.3887V22.647H11.5307V20.5805ZM13.8048 22.018C13.8048 21.1758 12.5191 21.5575 12.5191 21.1645C12.5191 20.8444 13.1872 20.895 13.5578 21.1027L13.7431 20.7378C13.2153 20.3953 12.0473 20.4009 12.0473 21.1983C12.0473 22.0012 13.3332 21.6643 13.3332 22.0406C13.3332 22.3943 12.5752 22.3662 12.1709 22.0855L11.9743 22.4393C12.6032 22.8658 13.8048 22.7762 13.8048 22.018ZM15.7926 22.5403L15.6691 22.1584C15.4558 22.2763 14.9841 22.4054 14.9841 21.9281V20.9961H15.7197V20.5805H14.9841V19.9518H14.5237V20.5805H14.0969V20.9904H14.5237V21.9281C14.5237 22.9165 15.495 22.7367 15.7926 22.5403ZM16.5395 21.7878H18.0837C18.0837 20.8781 17.6682 20.5187 17.1066 20.5187C16.5115 20.5187 16.0847 20.9624 16.0847 21.6025C16.0847 22.7536 17.3537 22.9446 17.9826 22.3999L17.7693 22.0629C17.3312 22.4224 16.6686 22.3886 16.5395 21.7878ZM19.858 20.5805C19.5998 20.4683 19.2068 20.4794 19.0046 20.8277V20.5805H18.544V22.6414H19.0046V21.479C19.0046 20.8276 19.5381 20.9118 19.7233 21.0073L19.858 20.5805ZM20.4532 21.6082C20.4532 20.968 21.1046 20.7601 21.6156 21.1365L21.8288 20.7715C21.1776 20.2605 19.9929 20.5413 19.9929 21.6138C19.9929 22.7256 21.2506 22.9502 21.8288 22.4561L21.6156 22.0911C21.099 22.456 20.4532 22.2371 20.4532 21.6082ZM24.1987 20.5805H23.7382V20.8277C23.2721 20.21 22.0591 20.5581 22.0591 21.6082C22.0591 22.6863 23.3171 22.9951 23.7382 22.3888V22.6471H24.1987V20.5805ZM26.091 20.5805C25.9562 20.5132 25.4733 20.4178 25.2374 20.8277V20.5805H24.7938V22.6414H25.2374V21.479C25.2374 20.8612 25.7428 20.9006 25.9562 21.0073L26.091 20.5805ZM28.3539 19.744H27.9103V20.8276C27.4498 20.2156 26.2313 20.5412 26.2313 21.6082C26.2313 22.6976 27.4948 22.9895 27.9103 22.3887V22.647H28.3539V19.744ZM28.7806 15.5268V15.7852H28.8257V15.5268H28.9323V15.482H28.6741V15.5268H28.7806ZM29.1513 22.4786C29.1513 22.4506 29.1513 22.4167 29.1345 22.3887C29.1176 22.3719 29.1063 22.3437 29.0895 22.3269C29.0726 22.3101 29.0445 22.299 29.0277 22.282C28.9997 22.282 28.9659 22.2651 28.9378 22.2651C28.9211 22.2651 28.8929 22.282 28.8593 22.282C28.8311 22.2989 28.8143 22.31 28.7975 22.3269C28.7695 22.3437 28.7526 22.3719 28.7526 22.3887C28.7357 22.4167 28.7357 22.4506 28.7357 22.4786C28.7357 22.4954 28.7357 22.5235 28.7526 22.557C28.7526 22.5739 28.7694 22.6021 28.7975 22.6189C28.8143 22.6357 28.8256 22.647 28.8593 22.6638C28.8873 22.6806 28.9211 22.6806 28.9378 22.6806C28.9659 22.6806 28.9997 22.6806 29.0277 22.6638C29.0445 22.647 29.0727 22.6358 29.0895 22.6189C29.1063 22.602 29.1175 22.5739 29.1345 22.557C29.1513 22.5234 29.1513 22.4954 29.1513 22.4786ZM29.331 15.4763H29.2524L29.1624 15.6729L29.0727 15.4763H28.9941V15.7795H29.0391V15.5493L29.1289 15.7459H29.1906L29.2692 15.5493V15.7795H29.3311V15.4763H29.331ZM29.5781 10.9561C29.5781 6.6773 26.091 3.19022 21.801 3.19022C20.2736 3.19022 18.7743 3.6507 17.5053 4.48741C21.5539 7.8172 21.6157 14.1176 17.5053 17.4305C18.7743 18.2727 20.2849 18.7276 21.801 18.7276C26.091 18.7331 29.5781 15.2518 29.5781 10.9561Z" fill="white"/>
</svg>
