<svg width="16" height="19" viewBox="0 0 16 19" fill="none" xmlns="http://www.w3.org/2000/svg">
<path fill-rule="evenodd" clip-rule="evenodd" d="M4.86847 3.25028C4.28281 3.25172 4.04721 3.26001 3.85975 3.30034C2.99497 3.48641 2.31945 4.16193 2.13338 5.02671C2.08727 5.24102 2.08304 5.51825 2.08304 6.30953V12.7C2.08304 13.5525 2.08362 14.1467 2.12142 14.6093C2.15851 15.0632 2.22764 15.324 2.32828 15.5215C2.54399 15.9448 2.8882 16.2891 3.31156 16.5048C3.50908 16.6054 3.76984 16.6745 4.22372 16.7116C4.68635 16.7494 5.28058 16.75 6.13304 16.75H9.86637C10.7188 16.75 11.3131 16.7494 11.7757 16.7116C12.2296 16.6745 12.4903 16.6054 12.6879 16.5048C13.1112 16.2891 13.4554 15.9448 13.6711 15.5215C13.7718 15.324 13.8409 15.0632 13.878 14.6093C13.9158 14.1467 13.9164 13.5525 13.9164 12.7V6.30953C13.9164 5.51825 13.9121 5.24102 13.866 5.02671C13.68 4.16193 13.0044 3.48641 12.1397 3.30034C11.9522 3.26001 11.7166 3.25172 11.131 3.25028C10.8154 4.21767 9.90586 4.91667 8.83308 4.91667H7.16641C6.09364 4.91667 5.18412 4.21767 4.86847 3.25028ZM11.1311 1.75001C11.6965 1.75053 12.1004 1.75757 12.4552 1.8339C13.8965 2.14402 15.0224 3.26989 15.3325 4.71119C15.4167 5.10259 15.4166 5.55387 15.4164 6.21578V6.2158L15.4164 6.30953V12.7V12.7321C15.4164 13.545 15.4164 14.2006 15.373 14.7315C15.3283 15.2781 15.234 15.7582 15.0076 16.2025C14.6481 16.9081 14.0744 17.4818 13.3688 17.8413C12.9246 18.0676 12.4445 18.162 11.8978 18.2066C11.3669 18.25 10.7113 18.25 9.89845 18.25H9.86637H6.13304H6.10096C5.28811 18.25 4.63249 18.25 4.10157 18.2066C3.55493 18.162 3.07479 18.0676 2.63058 17.8413C1.92497 17.4818 1.35129 16.9081 0.991766 16.2025C0.765425 15.7582 0.671066 15.2781 0.626404 14.7315C0.583027 14.2006 0.583033 13.5449 0.58304 12.7321L0.58304 12.7V6.30953L0.583024 6.21581C0.582847 5.55388 0.582726 5.10259 0.666942 4.71119C0.977059 3.26989 2.10292 2.14402 3.54423 1.8339C3.89899 1.75757 4.30296 1.75053 4.86838 1.75001C5.18395 0.782471 6.09353 0.0833359 7.16641 0.0833359H8.83308C9.90596 0.0833359 10.8155 0.782471 11.1311 1.75001ZM6.24975 2.5C6.24975 1.99374 6.66015 1.58334 7.16641 1.58334H8.83308C9.33934 1.58334 9.74975 1.99374 9.74975 2.5C9.74975 3.00626 9.33934 3.41667 8.83308 3.41667H7.16641C6.66015 3.41667 6.24975 3.00626 6.24975 2.5ZM4.74971 8.33334C4.74971 7.91912 5.08549 7.58334 5.49971 7.58334H10.4997C10.9139 7.58334 11.2497 7.91912 11.2497 8.33334C11.2497 8.74755 10.9139 9.08334 10.4997 9.08334H5.49971C5.08549 9.08334 4.74971 8.74755 4.74971 8.33334ZM5.49971 10.9167C5.08549 10.9167 4.74971 11.2525 4.74971 11.6667C4.74971 12.0809 5.08549 12.4167 5.49971 12.4167H8.83304C9.24725 12.4167 9.58304 12.0809 9.58304 11.6667C9.58304 11.2525 9.24725 10.9167 8.83304 10.9167H5.49971Z" fill="#22282F"/>
</svg>
