<svg width="34" height="26" viewBox="0 0 34 26" fill="none" xmlns="http://www.w3.org/2000/svg">
<path d="M11.2892 13.1235C11.2892 13.8086 10.7445 14.3308 10.0539 14.3308C9.53738 14.3308 9.15552 14.0389 9.15552 13.4886C9.15552 12.8034 9.68905 12.2531 10.374 12.2531C10.8962 12.2531 11.2892 12.5733 11.2892 13.1235ZM5.34845 10.4001H5.08442C5.00019 10.4001 4.91595 10.4563 4.90477 10.5518L4.66325 12.051L5.12373 12.0341C5.74135 12.0341 6.21863 11.95 6.33099 11.2368C6.46023 10.4844 5.98287 10.4001 5.34845 10.4001ZM21.2956 10.4001H21.0429C20.9418 10.4001 20.8744 10.4563 20.8631 10.5518L20.6273 12.051L21.0766 12.0341C21.8065 12.0341 22.3118 11.8657 22.3118 11.0234C22.3063 10.4283 21.7729 10.4001 21.2956 10.4001ZM33.1717 3.11723V22.8826C33.1717 24.3708 31.9645 25.5781 30.4764 25.5781H3.52341C2.03539 25.5781 0.828125 24.3708 0.828125 22.8826V3.11723C0.828125 1.62914 2.03539 0.421875 3.52341 0.421875H30.4764C31.9645 0.421875 33.1717 1.62921 33.1717 3.11723ZM8.03241 10.7203C8.03241 9.54105 7.12278 9.14801 6.08391 9.14801H3.83792C3.69751 9.14801 3.55716 9.2603 3.54598 9.41196L2.62503 15.145C2.60823 15.2575 2.69246 15.3697 2.80475 15.3697H3.8716C4.0232 15.3697 4.16361 15.2069 4.18055 15.0495L4.43319 13.5559C4.48944 13.1517 5.17442 13.292 5.44393 13.292C7.04973 13.2919 8.03241 12.3374 8.03241 10.7203ZM12.7605 11.2144H11.6935C11.4802 11.2144 11.4689 11.5232 11.4577 11.6748C11.132 11.1975 10.6603 11.1133 10.1269 11.1133C8.75115 11.1133 7.7011 12.3206 7.7011 13.6513C7.7011 14.7464 8.38616 15.4595 9.48106 15.4595C9.9864 15.4595 10.6153 15.1844 10.9691 14.7913C10.9411 14.8755 10.913 15.0552 10.913 15.1394C10.913 15.2686 10.9691 15.364 11.0926 15.364H12.0584C12.21 15.364 12.3392 15.2011 12.3673 15.044L12.94 11.4334C12.9569 11.3266 12.8727 11.2144 12.7605 11.2144ZM15.0346 16.7117L18.6115 11.512C18.6395 11.4839 18.6395 11.4559 18.6395 11.4166C18.6395 11.3212 18.5554 11.2201 18.4599 11.2201H17.3816C17.2863 11.2201 17.1851 11.2762 17.129 11.3605L15.641 13.5504L15.0234 11.4448C14.9784 11.3212 14.8549 11.2202 14.7144 11.2202H13.6644C13.5689 11.2202 13.4847 11.3212 13.4847 11.4166C13.4847 11.484 14.5796 14.6061 14.6752 14.9036C14.5236 15.117 13.524 16.5096 13.524 16.6781C13.524 16.7791 13.6082 16.8577 13.7037 16.8577H14.7819C14.883 16.8521 14.9784 16.7958 15.0346 16.7117ZM23.9796 10.7203C23.9796 9.54105 23.0699 9.14801 22.0312 9.14801H19.8019C19.6504 9.14801 19.51 9.2603 19.493 9.41196L18.5833 15.1395C18.5721 15.2519 18.6564 15.3641 18.7632 15.3641H19.9142C20.0266 15.3641 20.1107 15.2797 20.1388 15.1844L20.3915 13.5559C20.4477 13.1517 21.1327 13.292 21.4021 13.292C22.997 13.2919 23.9796 12.3374 23.9796 10.7203ZM28.7076 11.2144H27.6407C27.4273 11.2144 27.4161 11.5232 27.3992 11.6748C27.0904 11.1975 26.6131 11.1133 26.0685 11.1133C24.6927 11.1133 23.6427 12.3206 23.6427 13.6513C23.6427 14.7464 24.3278 15.4595 25.4226 15.4595C25.9449 15.4595 26.5738 15.1844 26.9107 14.7913C26.8939 14.8755 26.8546 15.0552 26.8546 15.1394C26.8546 15.2686 26.9107 15.364 27.0342 15.364H28.0056C28.1572 15.364 28.2864 15.2011 28.3145 15.044L28.8873 11.4334C28.9043 11.3266 28.82 11.2144 28.7076 11.2144ZM31.3749 9.34453C31.3749 9.23224 31.2907 9.14801 31.1952 9.14801H30.1563C30.0722 9.14801 29.9878 9.21537 29.9767 9.2996L29.067 15.1395L29.0502 15.1675C29.0502 15.2686 29.1345 15.3641 29.2466 15.3641H30.1733C30.3137 15.3641 30.4539 15.2012 30.4652 15.0441L31.3749 9.36141V9.34453ZM26.3213 12.2531C25.6361 12.2531 25.1027 12.7979 25.1027 13.4886C25.1027 14.0331 25.4957 14.3308 26.0123 14.3308C26.6861 14.3308 27.2308 13.8142 27.2308 13.1235C27.2365 12.5733 26.8434 12.2531 26.3213 12.2531Z" fill="white"/>
</svg>
