<svg width="18" height="18" viewBox="0 0 18 18" fill="none" xmlns="http://www.w3.org/2000/svg">
<path fill-rule="evenodd" clip-rule="evenodd" d="M11.5 0.75C10.1653 0.75 9.08333 1.83198 9.08333 3.16667C9.08333 4.50136 10.1653 5.58333 11.5 5.58333C12.5729 5.58333 13.4825 4.8842 13.798 3.91667L16.5 3.91667C16.9142 3.91667 17.25 3.58088 17.25 3.16667C17.25 2.75245 16.9142 2.41667 16.5 2.41667L13.798 2.41667C13.4825 1.44913 12.5729 0.75 11.5 0.75ZM12.4167 3.16667C12.4167 2.66041 12.0063 2.25 11.5 2.25C10.9937 2.25 10.5833 2.66041 10.5833 3.16667C10.5833 3.67293 10.9937 4.08333 11.5 4.08333C12.0063 4.08333 12.4167 3.67293 12.4167 3.16667ZM1.5 2.41667C1.08579 2.41667 0.75 2.75246 0.75 3.16667C0.75 3.58088 1.08579 3.91667 1.5 3.91667L7.33333 3.91667C7.74755 3.91667 8.08333 3.58088 8.08333 3.16667C8.08333 2.75245 7.74755 2.41667 7.33333 2.41667L1.5 2.41667ZM1.5 14.0833C1.08579 14.0833 0.75 14.4191 0.75 14.8333C0.75 15.2476 1.08579 15.5833 1.5 15.5833L7.33333 15.5833C7.74755 15.5833 8.08333 15.2475 8.08333 14.8333C8.08333 14.4191 7.74755 14.0833 7.33333 14.0833L1.5 14.0833ZM11.5 12.4167C12.5729 12.4167 13.4825 13.1158 13.798 14.0833H16.5C16.9142 14.0833 17.25 14.4191 17.25 14.8333C17.25 15.2475 16.9142 15.5833 16.5 15.5833H13.798C13.4825 16.5509 12.5729 17.25 11.5 17.25C10.1653 17.25 9.08333 16.168 9.08333 14.8333C9.08333 13.4986 10.1653 12.4167 11.5 12.4167ZM11.5 15.75C12.006 15.75 12.4162 15.3401 12.4167 14.8342L12.4167 14.8333C12.4167 14.3271 12.0063 13.9167 11.5 13.9167C10.9937 13.9167 10.5833 14.3271 10.5833 14.8333C10.5833 15.3396 10.9937 15.75 11.5 15.75ZM0.75 9C0.75 8.58579 1.08579 8.25 1.5 8.25L4.20197 8.25C4.51754 7.28247 5.42712 6.58334 6.5 6.58334C7.83469 6.58334 8.91667 7.66531 8.91667 9C8.91667 10.3347 7.83469 11.4167 6.5 11.4167C5.42713 11.4167 4.51754 10.7175 4.20197 9.75L1.5 9.75C1.08579 9.75 0.75 9.41422 0.75 9ZM9.91667 9C9.91667 8.58579 10.2525 8.25 10.6667 8.25L16.5 8.25C16.9142 8.25 17.25 8.58579 17.25 9C17.25 9.41421 16.9142 9.75 16.5 9.75L10.6667 9.75C10.2525 9.75 9.91667 9.41422 9.91667 9ZM5.58333 9C5.58333 8.49374 5.99374 8.08334 6.5 8.08334C7.00626 8.08334 7.41667 8.49374 7.41667 9C7.41667 9.50626 7.00626 9.91667 6.5 9.91667C5.99374 9.91667 5.58333 9.50626 5.58333 9Z" fill="#22282F"/>
</svg>
