<svg width="18" height="20" viewBox="0 0 18 20" fill="none" xmlns="http://www.w3.org/2000/svg">
<path fill-rule="evenodd" clip-rule="evenodd" d="M5.66673 0.91717L5.5316 0.917136C4.57696 0.91677 3.92495 0.916519 3.37242 1.09073C2.20556 1.45864 1.29154 2.37266 0.92363 3.53952C0.749418 4.09205 0.749668 4.74406 0.750034 5.6987L0.750068 5.83384L0.750067 14.1672L0.750033 14.3023C0.749667 15.2569 0.749416 15.909 0.923628 16.4615C1.29154 17.6283 2.20556 18.5424 3.37242 18.9103C3.92495 19.0845 4.57696 19.0842 5.53159 19.0839L5.66673 19.0838L5.80188 19.0839C6.75651 19.0842 7.40852 19.0845 7.96104 18.9103C9.12791 18.5424 10.0419 17.6283 10.4098 16.4615C10.584 15.909 10.5838 15.2569 10.5834 14.3023L10.5834 14.1672V13.3338C10.5834 12.9196 10.2476 12.5838 9.8334 12.5838C9.41918 12.5838 9.0834 12.9196 9.0834 13.3338V14.1672C9.0834 15.3095 9.07465 15.7079 8.97926 16.0104C8.75852 16.7105 8.21011 17.259 7.50999 17.4797C7.20746 17.5751 6.80902 17.5838 5.66673 17.5838C4.52445 17.5838 4.12601 17.5751 3.82348 17.4797C3.12336 17.259 2.57495 16.7105 2.3542 16.0104C2.25882 15.7079 2.25007 15.3095 2.25007 14.1672L2.25007 5.83384C2.25007 4.69155 2.25882 4.29311 2.35421 3.99058C2.57495 3.29046 3.12336 2.74205 3.82348 2.52131C4.12601 2.42592 4.52445 2.41717 5.66673 2.41717C6.80902 2.41717 7.20746 2.42592 7.50999 2.52131C8.21011 2.74205 8.75852 3.29046 8.97926 3.99058C9.07465 4.29311 9.0834 4.69155 9.0834 5.83384V6.66717C9.0834 7.08138 9.41919 7.41717 9.8334 7.41717C10.2476 7.41717 10.5834 7.08138 10.5834 6.66717V5.83384L10.5834 5.6987C10.5838 4.74406 10.5841 4.09205 10.4098 3.53952C10.0419 2.37266 9.12791 1.45864 7.96105 1.09073C7.40852 0.91652 6.75651 0.91677 5.80187 0.917136L5.66673 0.91717ZM13.6971 6.13643C13.4042 5.84354 12.9293 5.84354 12.6364 6.13643C12.3435 6.42933 12.3435 6.9042 12.6364 7.19709L14.6894 9.2501L5.66673 9.25009C5.25252 9.25009 4.91673 9.58588 4.91673 10.0001C4.91673 10.4143 5.25252 10.7501 5.66673 10.7501H14.6894L12.6364 12.8031C12.3435 13.096 12.3435 13.5709 12.6364 13.8638C12.9293 14.1567 13.4042 14.1567 13.6971 13.8638L17.0304 10.5304C17.1711 10.3898 17.2501 10.199 17.2501 10.0001C17.2501 9.80118 17.1711 9.61042 17.0304 9.46977L13.6971 6.13643Z" fill="#22282F"/>
</svg>
