<svg width="16" height="16" viewBox="0 0 16 16" fill="white" xmlns="http://www.w3.org/2000/svg">
<path fill-rule="evenodd" clip-rule="evenodd" d="M7.3493 2.32374C7.61123 2.07447 7.82982 2 8 2C8.17018 2 8.38877 2.07447 8.6507 2.32374C8.91649 2.57669 9.18997 2.97816 9.43596 3.53163C9.54636 3.78004 9.64827 4.05241 9.73991 4.34567C9.17988 4.28288 8.59691 4.25 8 4.25C7.40309 4.25 6.82012 4.28288 6.26009 4.34567C6.35173 4.0524 6.45364 3.78004 6.56404 3.53163C6.81003 2.97816 7.08351 2.57669 7.3493 2.32374ZM4.62789 4.62789C4.77714 4.00468 4.96749 3.43054 5.19332 2.92243C5.23852 2.82073 5.28548 2.72092 5.33421 2.62324C4.1612 3.20594 3.20594 4.1612 2.62324 5.33421C2.72092 5.28548 2.82073 5.23852 2.92243 5.19332C3.43054 4.96749 4.00468 4.77714 4.62789 4.62789ZM2.62324 10.6658C2.72092 10.7145 2.82073 10.7615 2.92243 10.8067C3.43054 11.0325 4.00468 11.2229 4.62789 11.3721C4.77714 11.9953 4.96749 12.5695 5.19332 13.0776C5.23852 13.1793 5.28548 13.2791 5.33421 13.3768C4.1612 12.7941 3.20594 11.8388 2.62324 10.6658ZM4.34567 9.73991C4.0524 9.64826 3.78004 9.54636 3.53163 9.43596C2.97816 9.18997 2.57669 8.91649 2.32375 8.6507C2.07447 8.38877 2 8.17018 2 8C2 7.82982 2.07447 7.61123 2.32375 7.3493C2.57669 7.08351 2.97816 6.81003 3.53163 6.56404C3.78004 6.45364 4.0524 6.35173 4.34567 6.26009C4.28288 6.82012 4.25 7.40309 4.25 8C4.25 8.59691 4.28288 9.17987 4.34567 9.73991ZM5.90553 10.0945C5.80552 9.44435 5.75 8.73979 5.75 8C5.75 7.26021 5.80552 6.55565 5.90553 5.90553C6.55565 5.80552 7.26021 5.75 8 5.75C8.73979 5.75 9.44435 5.80552 10.0945 5.90553C10.1945 6.55565 10.25 7.26021 10.25 8C10.25 8.73979 10.1945 9.44435 10.0945 10.0945C9.44435 10.1945 8.73979 10.25 8 10.25C7.26021 10.25 6.55565 10.1945 5.90553 10.0945ZM6.26009 11.6543C6.35173 11.9476 6.45364 12.22 6.56404 12.4684C6.81003 13.0218 7.08351 13.4233 7.3493 13.6763C7.61123 13.9255 7.82982 14 8 14C8.17018 14 8.38877 13.9255 8.6507 13.6763C8.91649 13.4233 9.18997 13.0218 9.43596 12.4684C9.54636 12.22 9.64827 11.9476 9.73991 11.6543C9.17988 11.7171 8.59691 11.75 8 11.75C7.40309 11.75 6.82012 11.7171 6.26009 11.6543ZM11.3721 11.3721C11.2229 11.9953 11.0325 12.5695 10.8067 13.0776C10.7615 13.1793 10.7145 13.2791 10.6658 13.3768C11.8388 12.7941 12.7941 11.8388 13.3768 10.6658C13.2791 10.7145 13.1793 10.7615 13.0776 10.8067C12.5695 11.0325 11.9953 11.2229 11.3721 11.3721ZM15.5 8C15.5 3.85786 12.1421 0.5 8 0.5C3.85786 0.5 0.5 3.85786 0.5 8C0.5 12.1421 3.85786 15.5 8 15.5C12.1421 15.5 15.5 12.1421 15.5 8ZM13.3768 5.33421C13.2791 5.28548 13.1793 5.23852 13.0776 5.19332C12.5695 4.96749 11.9953 4.77714 11.3721 4.62789C11.2229 4.00469 11.0325 3.43054 10.8067 2.92243C10.7615 2.82073 10.7145 2.72092 10.6658 2.62324C11.8388 3.20594 12.7941 4.1612 13.3768 5.33421ZM11.6543 6.26009C11.9476 6.35174 12.22 6.45363 12.4684 6.56404C13.0218 6.81002 13.4233 7.08351 13.6763 7.3493C13.9255 7.61123 14 7.82982 14 8C14 8.17018 13.9255 8.38877 13.6763 8.6507C13.4233 8.91649 13.0218 9.18997 12.4684 9.43596C12.22 9.54636 11.9476 9.64826 11.6543 9.73991C11.7171 9.17987 11.75 8.59691 11.75 8C11.75 7.40309 11.7171 6.82013 11.6543 6.26009Z" fill="" />
</svg>
