<svg width="12" height="16" viewBox="0 0 12 16" fill="none" xmlns="http://www.w3.org/2000/svg">
<path fill-rule="evenodd" clip-rule="evenodd" d="M3.75 4.25C3.75 3.00736 4.75736 2 6 2C7.24264 2 8.25 3.00736 8.25 4.25C8.25 5.49264 7.24264 6.5 6 6.5C4.75736 6.5 3.75 5.49264 3.75 4.25ZM6 0.5C3.92893 0.5 2.25 2.17893 2.25 4.25C2.25 6.32107 3.92893 8 6 8C8.07107 8 9.75 6.32107 9.75 4.25C9.75 2.17893 8.07107 0.5 6 0.5ZM1.5 13.25C1.5 12.0074 2.50736 11 3.75 11H8.25C9.49264 11 10.5 12.0074 10.5 13.25C10.5 13.6642 10.1642 14 9.75 14H2.25C1.83579 14 1.5 13.6642 1.5 13.25ZM3.75 9.5C1.67893 9.5 0 11.1789 0 13.25C0 14.4926 1.00736 15.5 2.25 15.5H9.75C10.9926 15.5 12 14.4926 12 13.25C12 11.1789 10.3211 9.5 8.25 9.5H3.75Z" fill="white"/>
</svg>
