<svg width="34" height="26" viewBox="0 0 34 26" fill="none" xmlns="http://www.w3.org/2000/svg">
<path d="M27.2252 11.613C27.2252 11.613 27.652 13.7019 27.7475 14.1398H25.8719C26.0573 13.6402 26.7703 11.6973 26.7703 11.6973C26.7591 11.7141 26.9557 11.1863 27.068 10.8606L27.2252 11.613ZM33.1717 3.11723V22.8826C33.1717 24.3708 31.9645 25.5781 30.4764 25.5781H3.52341C2.03539 25.5781 0.828125 24.3708 0.828125 22.8826V3.11723C0.828125 1.62914 2.03539 0.421875 3.52341 0.421875H30.4764C31.9645 0.421875 33.1717 1.62921 33.1717 3.11723ZM9.39134 17.2227L12.9401 8.50788H10.5537L8.34692 14.46L8.1054 13.2527L7.31924 9.24342C7.19007 8.68753 6.7914 8.53031 6.29724 8.50788H2.66434L2.62496 8.68198C3.51216 8.90662 4.30395 9.23231 4.99456 9.64216L7.00487 17.2228H9.39134V17.2227ZM14.6921 17.2338L16.1071 8.50781H13.8498L12.4404 17.2338H14.6921ZM22.5477 14.3814C22.559 13.3875 21.9525 12.6295 20.6554 12.0061C19.8637 11.6075 19.3808 11.3379 19.3808 10.928C19.392 10.5574 19.7906 10.1756 20.6779 10.1756C21.4134 10.1587 21.9525 10.3328 22.3568 10.5068L22.559 10.6023L22.8678 8.71559C22.4241 8.54142 21.7167 8.3449 20.8463 8.3449C18.6171 8.3449 17.0505 9.53543 17.0392 11.2312C17.0224 12.4834 18.1622 13.1797 19.0157 13.6008C19.8861 14.0274 20.1837 14.3083 20.1837 14.6845C20.1725 15.2686 19.4761 15.5381 18.8304 15.5381C17.932 15.5381 17.449 15.3976 16.7136 15.0721L16.4159 14.9316L16.1015 16.8912C16.6292 17.1328 17.6063 17.3462 18.617 17.3575C20.9867 17.363 22.5309 16.1893 22.5477 14.3814ZM30.4764 17.2338L28.6571 8.50781H26.9108C26.3717 8.50781 25.9617 8.6651 25.7315 9.23217L22.3792 17.2337H24.7489C24.7489 17.2337 25.1364 16.1557 25.2205 15.9255H28.118C28.1852 16.2343 28.3875 17.2337 28.3875 17.2337H30.4764V17.2338Z" fill="white"/>
</svg>
