<?xml version="1.0" encoding="utf-8"?><svg viewBox="0 0 34 26" xmlns="http://www.w3.org/2000/svg" xmlns:xlink="http://www.w3.org/1999/xlink"><style>:root>svg{display:none}:root>svg:target{display:block}</style><svg viewBox="0 0 16 16" id="Union" xmlns="http://www.w3.org/2000/svg"><path fill-rule="evenodd" clip-rule="evenodd" d="M7.35 2.324C7.61 2.074 7.83 2 8 2c.17 0 .389.074.65.324.266.253.54.654.786 1.208.11.248.212.52.304.814A15.648 15.648 0 008 4.25c-.597 0-1.18.033-1.74.096.092-.294.194-.566.304-.814.246-.554.52-.955.785-1.208zM4.627 4.628c.15-.623.34-1.197.565-1.706.046-.101.092-.201.141-.299a6.026 6.026 0 00-2.71 2.711c.097-.049.197-.095.298-.14a9.889 9.889 0 011.706-.566zm-2.005 6.038c.098.048.198.095.3.14a9.887 9.887 0 001.705.566c.15.623.34 1.197.565 1.706.046.101.092.201.141.299a6.026 6.026 0 01-2.71-2.711zm1.723-.926a7.567 7.567 0 01-.814-.304c-.554-.246-.955-.52-1.208-.785C2.074 8.389 2 8.17 2 8c0-.17.074-.389.324-.65.253-.266.654-.54 1.208-.786.248-.11.52-.212.814-.304a15.648 15.648 0 000 3.48zm1.56.354A13.83 13.83 0 015.75 8c0-.74.056-1.444.156-2.094.65-.1 1.354-.156 2.094-.156.74 0 1.444.056 2.095.156.1.65.155 1.354.155 2.094 0 .74-.056 1.444-.155 2.095-.65.1-1.355.155-2.095.155-.74 0-1.444-.056-2.094-.155zm.354 1.56c.092.294.194.566.304.814.246.554.52.955.785 1.208.262.25.48.324.651.324.17 0 .389-.075.65-.324.266-.253.54-.654.786-1.208.11-.248.212-.52.304-.814a15.645 15.645 0 01-3.48 0zm5.112-.282a9.887 9.887 0 01-.565 1.706 7.486 7.486 0 01-.141.299 6.026 6.026 0 002.71-2.711 7.486 7.486 0 01-.298.14 9.887 9.887 0 01-1.706.566zM15.5 8a7.5 7.5 0 10-15 0 7.5 7.5 0 0015 0zm-2.123-2.666a7.444 7.444 0 00-.3-.14 9.889 9.889 0 00-1.705-.566 9.887 9.887 0 00-.565-1.706 7.472 7.472 0 00-.141-.299 6.026 6.026 0 012.71 2.711zm-1.723.926c.294.092.566.194.814.304.554.246.955.52 1.208.785.25.262.324.48.324.651 0 .17-.075.389-.324.65-.253.266-.654.54-1.208.786-.248.11-.52.212-.814.304a15.645 15.645 0 000-3.48z"/></svg><svg viewBox="0 0 8 13" id="arrow" xmlns="http://www.w3.org/2000/svg"><path fill-rule="evenodd" clip-rule="evenodd" d="M.803.97a.75.75 0 011.06 0l5 5a.75.75 0 010 1.06l-5 5a.75.75 0 01-1.06-1.06l4.47-4.47-4.47-4.47a.75.75 0 010-1.06z"/></svg><svg viewBox="0 0 16 20" id="basket" xmlns="http://www.w3.org/2000/svg"><path fill-rule="evenodd" clip-rule="evenodd" d="M8.22.25h-.154c-1.381 0-2.264 0-3.014.256a4.75 4.75 0 00-2.797 2.555c-.323.724-.403 1.603-.527 2.978l-.014.155-.531 5.85-.003.034c-.103 1.14-.185 2.04-.192 2.769-.006.742.063 1.375.304 1.962a4.75 4.75 0 002.194 2.402c.562.293 1.187.42 1.927.48.725.059 1.63.059 2.775.059h.066c1.144 0 2.05 0 2.775-.06.74-.06 1.364-.186 1.926-.48a4.75 4.75 0 002.194-2.401c.242-.587.311-1.22.304-1.962-.006-.728-.088-1.63-.191-2.77l-.003-.032-.531-5.851-.014-.155c-.125-1.375-.204-2.254-.528-2.978A4.75 4.75 0 0011.39.506C10.64.25 9.757.25 8.376.25h-.155zM5.539 1.925c.483-.165 1.093-.175 2.683-.175 1.59 0 2.2.01 2.683.175a3.25 3.25 0 011.913 1.748c.208.466.273 1.072.417 2.656l.53 5.851c.108 1.18.184 2.02.19 2.68.005.652-.06 1.057-.192 1.378a3.25 3.25 0 01-1.5 1.643c-.308.16-.705.262-1.355.315-.658.053-1.501.054-2.686.054s-2.029 0-2.686-.054c-.65-.053-1.047-.154-1.355-.315a3.25 3.25 0 01-1.5-1.643c-.133-.321-.198-.726-.192-1.378.006-.66.082-1.5.189-2.68l.53-5.851c.144-1.584.21-2.19.418-2.656a3.25 3.25 0 011.913-1.748zm1.128 5.77a1.555 1.555 0 103.11 0V5a.75.75 0 011.5 0v2.695a3.055 3.055 0 01-6.11 0V5a.75.75 0 111.5 0v2.695z"/></svg><svg viewBox="0 0 14 26" id="facebook" xmlns="http://www.w3.org/2000/svg"><path d="M11.118 4.598h2.368v-4c-.408-.053-1.813-.176-3.45-.176-3.414 0-5.753 2.083-5.753 5.91v3.524H.515v4.47h3.768v11.252h4.619V14.327h3.616l.575-4.471H8.902V6.775c0-1.292.358-2.177 2.216-2.177z"/></svg><svg viewBox="0 0 26 26" id="instagram" xmlns="http://www.w3.org/2000/svg"><path d="M13.003 6.552A6.438 6.438 0 006.554 13a6.438 6.438 0 006.449 6.448A6.438 6.438 0 0019.45 13a6.437 6.437 0 00-6.448-6.448zm0 10.64A4.2 4.2 0 018.81 13a4.196 4.196 0 014.192-4.192A4.196 4.196 0 0117.195 13a4.2 4.2 0 01-4.192 4.192zm8.216-10.904a1.5 1.5 0 01-1.504 1.504 1.504 1.504 0 111.504-1.504zm4.27 1.526c-.095-2.014-.555-3.799-2.03-5.27-1.471-1.47-3.256-1.93-5.27-2.03-2.077-.119-8.3-.119-10.377 0-2.01.095-3.794.555-5.27 2.025C1.066 4.01.612 5.794.51 7.81c-.118 2.076-.118 8.3 0 10.377.096 2.014.556 3.799 2.032 5.27 1.476 1.47 3.255 1.93 5.27 2.03 2.076.119 8.3.119 10.376 0 2.015-.095 3.8-.555 5.27-2.03 1.47-1.471 1.93-3.256 2.032-5.27.118-2.077.118-8.295 0-10.372zm-2.682 12.6a4.244 4.244 0 01-2.39 2.39c-1.656.657-5.585.506-7.414.506-1.83 0-5.764.145-7.414-.506a4.244 4.244 0 01-2.39-2.39c-.657-1.656-.506-5.584-.506-7.414s-.146-5.764.505-7.413A4.244 4.244 0 015.59 3.196c1.656-.657 5.584-.505 7.414-.505s5.763-.146 7.413.505a4.244 4.244 0 012.391 2.39c.657 1.656.505 5.585.505 7.414 0 1.83.152 5.764-.505 7.414z"/></svg><svg viewBox="0 0 14 17" id="location" xmlns="http://www.w3.org/2000/svg"><path fill-rule="evenodd" clip-rule="evenodd" d="M1.75 7.611c0-1.838.67-3.16 1.628-4.027C4.35 2.704 5.664 2.25 7 2.25c1.336 0 2.65.454 3.622 1.334.958.868 1.628 2.189 1.628 4.027 0 3.075-2.388 5.666-4.148 7.138-.425.356-.522.427-.758.494a1.49 1.49 0 01-.344.032 1.49 1.49 0 01-.344-.032c-.236-.067-.333-.138-.758-.494-1.76-1.472-4.148-4.063-4.148-7.138zm12 0c0-2.236-.83-3.97-2.122-5.14C10.35 1.315 8.664.75 7 .75c-1.664 0-3.35.564-4.628 1.722C1.08 3.64.25 5.375.25 7.612c0 3.802 2.89 6.785 4.685 8.288l.038.031c.391.328.709.594 1.27.755.237.067.52.09.757.09.238 0 .52-.023.757-.09.562-.161.88-.427 1.27-.755l.038-.031c1.796-1.503 4.685-4.486 4.685-8.289zM5.5 7.5a1.5 1.5 0 113 0 1.5 1.5 0 01-3 0zm1.5-3a3 3 0 100 6 3 3 0 000-6z"/></svg><svg viewBox="0 0 34 26" id="mastercard" xmlns="http://www.w3.org/2000/svg"><path d="M27.944 21.608c0 .382-.258.657-.629.657-.382 0-.629-.292-.629-.657 0-.365.247-.657.629-.657.37 0 .629.292.629.657zm-17.452-.657c-.399 0-.629.292-.629.657 0 .365.23.657.629.657.365 0 .612-.275.612-.657-.006-.365-.247-.657-.612-.657zm6.598-.017c-.303 0-.489.197-.534.489h1.073c-.05-.32-.247-.489-.54-.489zm6.053.017c-.382 0-.612.292-.612.657 0 .365.23.657.612.657s.629-.275.629-.657c0-.365-.247-.657-.63-.657zm5.947 1.466c0 .017.016.028.016.062 0 .016-.017.027-.017.061-.016.017-.016.028-.028.045-.017.017-.028.028-.061.028-.017.017-.028.017-.062.017-.017 0-.028 0-.062-.017-.017 0-.028-.017-.045-.028-.017-.017-.028-.028-.028-.045-.017-.028-.017-.045-.017-.061 0-.028 0-.045.017-.062 0-.028.017-.045.028-.062.017-.017.028-.017.045-.028.028-.017.045-.017.062-.017.028 0 .045 0 .062.017.028.017.044.017.061.028s.012.034.029.062zm-.124.078c.028 0 .028-.016.045-.016.017-.017.017-.028.017-.045 0-.017 0-.029-.017-.045-.017 0-.028-.017-.062-.017h-.09v.196h.045v-.078h.017l.062.078h.045l-.062-.073zm4.206-19.378v19.766a2.696 2.696 0 01-2.696 2.695H3.523a2.696 2.696 0 01-2.695-2.695V3.117A2.696 2.696 0 013.523.422h26.953a2.696 2.696 0 012.696 2.695zm-28.75 7.84a7.78 7.78 0 007.777 7.776 7.83 7.83 0 004.295-1.297c-4.093-3.33-4.065-9.613 0-12.943A7.784 7.784 0 0012.2 3.196c-4.29-.006-7.777 3.481-7.777 7.76zM17 17.064c3.959-3.088 3.942-9.107 0-12.213-3.942 3.106-3.959 9.13 0 12.213zM9.01 21.35c0-.489-.32-.809-.826-.826-.258 0-.533.079-.719.365-.135-.23-.365-.365-.685-.365a.713.713 0 00-.595.304v-.247h-.46v2.06h.46c0-1.06-.14-1.695.506-1.695.572 0 .46.572.46 1.695h.444c0-1.027-.14-1.695.505-1.695.573 0 .46.561.46 1.695h.46V21.35h-.01zm2.52-.77h-.443v.248a.81.81 0 00-.657-.304c-.578 0-1.022.46-1.022 1.084 0 .63.444 1.084 1.022 1.084.292 0 .505-.107.657-.303v.258h.444v-2.066zm2.275 1.438c0-.842-1.286-.46-1.286-.854 0-.32.668-.269 1.039-.061l.185-.365c-.528-.343-1.696-.337-1.696.46 0 .803 1.286.466 1.286.843 0 .353-.758.325-1.162.044l-.197.354c.63.427 1.83.337 1.83-.421zm1.988.522l-.124-.382c-.213.118-.685.247-.685-.23v-.932h.736v-.415h-.736v-.63h-.46v.63h-.427v.41h.427v.937c0 .988.971.809 1.269.612zm.747-.752h1.544c0-.91-.416-1.27-.977-1.27-.595 0-1.022.444-1.022 1.084 0 1.152 1.269 1.343 1.898.798l-.214-.337c-.438.36-1.1.326-1.23-.275zm3.318-1.207c-.258-.113-.651-.102-.853.247v-.247h-.461v2.06h.46V21.48c0-.651.534-.567.72-.472l.134-.427zm.595 1.027c0-.64.652-.848 1.163-.471l.213-.366c-.651-.51-1.836-.23-1.836.843 0 1.112 1.258 1.336 1.836.842l-.213-.365c-.517.365-1.163.146-1.163-.483zm3.746-1.027h-.46v.247c-.467-.618-1.68-.27-1.68.78 0 1.078 1.258 1.387 1.68.78v.26h.46V20.58zm1.892 0c-.135-.068-.618-.163-.854.247v-.247h-.443v2.06h.443V21.48c0-.618.506-.578.72-.472l.134-.427zm2.263-.837h-.444v1.084c-.46-.612-1.679-.287-1.679.78 0 1.09 1.264 1.381 1.68.78v.259h.443v-2.903zm.427-4.217v.258h.045v-.258h.106v-.045h-.258v.045h.107zm.37 6.952c0-.028 0-.062-.017-.09-.016-.017-.028-.045-.044-.062-.017-.017-.046-.028-.062-.045-.028 0-.062-.017-.09-.017-.017 0-.045.017-.079.017a.29.29 0 00-.062.045c-.027.017-.044.045-.044.062-.017.028-.017.062-.017.09 0 .016 0 .044.017.078 0 .017.016.045.044.062a.194.194 0 00.062.045.153.153 0 00.079.017c.028 0 .062 0 .09-.017.017-.017.045-.028.062-.045.016-.017.027-.045.044-.062.017-.034.017-.062.017-.078zm.18-7.003h-.079l-.09.197-.09-.197h-.078v.303h.045v-.23l.09.197h.062l.078-.197v.23h.062v-.303zm.247-4.52c0-4.279-3.487-7.766-7.777-7.766-1.527 0-3.027.46-4.296 1.297 4.049 3.33 4.11 9.63 0 12.943a7.812 7.812 0 004.296 1.298 7.772 7.772 0 007.777-7.772z"/></svg><svg viewBox="0 0 16 19" id="orders" xmlns="http://www.w3.org/2000/svg"><path fill-rule="evenodd" clip-rule="evenodd" d="M4.868 3.25c-.585.002-.82.01-1.008.05a2.25 2.25 0 00-1.727 1.727c-.046.214-.05.491-.05 1.283v6.39c0 .853 0 1.447.038 1.91.038.453.107.714.207.912.216.423.56.767.984.983.197.1.458.17.912.207.462.037 1.057.038 1.909.038h3.733c.853 0 1.447 0 1.91-.038.454-.038.714-.107.912-.207a2.25 2.25 0 00.983-.983c.1-.198.17-.459.207-.913.038-.462.038-1.056.038-1.909V6.31c0-.792-.004-1.069-.05-1.283A2.25 2.25 0 0012.14 3.3c-.188-.04-.423-.048-1.009-.05a2.418 2.418 0 01-2.298 1.667H7.166A2.418 2.418 0 014.868 3.25zm6.263-1.5c.566 0 .97.008 1.324.084a3.75 3.75 0 012.877 2.877c.085.392.085.843.084 1.505v6.516c0 .813 0 1.469-.043 2-.045.546-.139 1.026-.365 1.47a3.75 3.75 0 01-1.64 1.64c-.443.226-.924.32-1.47.365-.531.043-1.187.043-2 .043H6.101c-.813 0-1.469 0-2-.043-.546-.045-1.026-.14-1.47-.366a3.75 3.75 0 01-1.64-1.639c-.226-.444-.32-.924-.365-1.47-.043-.531-.043-1.187-.043-2V6.216c0-.662 0-1.113.084-1.505a3.75 3.75 0 012.877-2.877c.355-.076.759-.083 1.324-.084A2.418 2.418 0 017.166.083h1.667c1.073 0 1.982.7 2.298 1.667zM6.25 2.5c0-.506.41-.917.916-.917h1.667a.917.917 0 110 1.834H7.166A.917.917 0 016.25 2.5zm-1.5 5.833a.75.75 0 01.75-.75h5a.75.75 0 010 1.5h-5a.75.75 0 01-.75-.75zm.75 2.584a.75.75 0 000 1.5h3.333a.75.75 0 000-1.5H5.5z"/></svg><svg viewBox="0 0 34 26" id="paypal" xmlns="http://www.w3.org/2000/svg"><path d="M11.29 13.123c0 .686-.545 1.208-1.236 1.208-.517 0-.898-.292-.898-.842 0-.686.533-1.236 1.218-1.236.522 0 .915.32.915.87zM5.347 10.4h-.264a.177.177 0 00-.18.152l-.24 1.499.46-.017c.617 0 1.095-.084 1.207-.797.13-.753-.348-.837-.983-.837zm15.948 0h-.253c-.101 0-.169.056-.18.152l-.236 1.499.45-.017c.73 0 1.235-.168 1.235-1.01-.006-.596-.54-.624-1.016-.624zm11.876-7.283v19.766a2.696 2.696 0 01-2.696 2.695H3.523a2.696 2.696 0 01-2.695-2.695V3.117A2.696 2.696 0 013.523.422h26.953a2.696 2.696 0 012.696 2.695zM8.032 10.72c0-1.179-.91-1.572-1.948-1.572H3.838c-.14 0-.28.112-.292.264l-.921 5.733c-.017.113.067.225.18.225h1.067c.151 0 .292-.163.309-.32l.252-1.494c.056-.404.741-.264 1.01-.264 1.607 0 2.59-.955 2.59-2.572zm4.729.494h-1.067c-.214 0-.225.31-.236.46-.326-.476-.798-.56-1.331-.56-1.376 0-2.426 1.207-2.426 2.537 0 1.095.685 1.809 1.78 1.809.505 0 1.134-.276 1.488-.669a1.504 1.504 0 00-.056.348c0 .13.056.225.18.225h.965c.152 0 .281-.163.31-.32l.572-3.61c.017-.107-.067-.22-.18-.22zm2.274 5.498l3.576-5.2c.029-.028.029-.056.029-.095 0-.096-.085-.197-.18-.197h-1.078a.318.318 0 00-.253.14l-1.488 2.19-.618-2.105a.34.34 0 00-.309-.225h-1.05c-.095 0-.18.101-.18.197 0 .067 1.096 3.19 1.191 3.487-.151.213-1.151 1.606-1.151 1.774 0 .101.084.18.18.18h1.078a.33.33 0 00.253-.146zm8.945-5.992c0-1.179-.91-1.572-1.949-1.572h-2.23a.31.31 0 00-.308.264l-.91 5.727c-.01.113.073.225.18.225h1.151c.113 0 .197-.084.225-.18l.253-1.628c.056-.404.74-.264 1.01-.264 1.595 0 2.578-.955 2.578-2.572zm4.728.494H27.64c-.214 0-.225.31-.242.46-.309-.476-.786-.56-1.33-.56-1.376 0-2.426 1.207-2.426 2.537 0 1.095.685 1.809 1.78 1.809.522 0 1.15-.276 1.488-.669-.017.085-.056.264-.056.348 0 .13.056.225.18.225h.97c.152 0 .281-.163.31-.32l.572-3.61c.017-.107-.067-.22-.18-.22zm2.667-1.87c0-.112-.084-.196-.18-.196h-1.039a.187.187 0 00-.18.152l-.909 5.84-.017.027c0 .102.084.197.197.197h.926c.14 0 .28-.163.292-.32l.91-5.683v-.016zm-5.054 2.91c-.685 0-1.218.544-1.218 1.235 0 .544.393.842.91.842.673 0 1.218-.517 1.218-1.207.005-.55-.388-.87-.91-.87z"/></svg><svg viewBox="0 0 18 18" id="settings" xmlns="http://www.w3.org/2000/svg"><path fill-rule="evenodd" clip-rule="evenodd" d="M11.5.75a2.417 2.417 0 102.298 3.167H16.5a.75.75 0 000-1.5h-2.702A2.418 2.418 0 0011.5.75zm.917 2.417a.917.917 0 10-1.834 0 .917.917 0 001.834 0zM1.5 2.417a.75.75 0 000 1.5h5.833a.75.75 0 100-1.5H1.5zm0 11.666a.75.75 0 000 1.5h5.833a.75.75 0 000-1.5H1.5zm10-1.666c1.073 0 1.982.699 2.298 1.666H16.5a.75.75 0 010 1.5h-2.702a2.418 2.418 0 11-2.298-3.166zm0 3.333a.917.917 0 100-1.833.917.917 0 000 1.833zM.75 9a.75.75 0 01.75-.75h2.702a2.418 2.418 0 110 1.5H1.5A.75.75 0 01.75 9zm9.167 0a.75.75 0 01.75-.75H16.5a.75.75 0 010 1.5h-5.833a.75.75 0 01-.75-.75zM5.583 9a.917.917 0 111.834 0 .917.917 0 01-1.834 0z"/></svg><svg viewBox="0 0 18 20" id="sing-out" xmlns="http://www.w3.org/2000/svg"><path fill-rule="evenodd" clip-rule="evenodd" d="M5.667.917h-.135c-.955 0-1.607 0-2.16.174A3.75 3.75 0 00.924 3.54C.749 4.092.75 4.744.75 5.699v8.603c0 .955 0 1.607.174 2.16a3.75 3.75 0 002.448 2.448c.553.174 1.205.174 2.16.174h.27c.955 0 1.607 0 2.159-.174a3.75 3.75 0 002.449-2.448c.174-.553.174-1.205.173-2.16v-.968a.75.75 0 00-1.5 0v.833c0 1.143-.008 1.54-.104 1.843a2.25 2.25 0 01-1.469 1.47c-.303.095-.701.104-1.843.104-1.143 0-1.541-.009-1.844-.104a2.25 2.25 0 01-1.469-1.47c-.095-.302-.104-.7-.104-1.843V5.834c0-1.142.009-1.54.104-1.843.22-.7.77-1.249 1.47-1.47.302-.095.7-.104 1.843-.104 1.142 0 1.54.009 1.843.104.7.221 1.249.77 1.47 1.47.095.302.103.7.103 1.843v.833a.75.75 0 001.5 0V5.7c0-.955.001-1.607-.173-2.16a3.75 3.75 0 00-2.45-2.448C7.41.917 6.757.917 5.801.917h-.134zm8.03 5.22a.75.75 0 00-1.06 1.06l2.052 2.053H5.667a.75.75 0 000 1.5h9.022l-2.053 2.053a.75.75 0 001.061 1.06l3.333-3.333a.75.75 0 000-1.06l-3.333-3.334z"/></svg><svg viewBox="0 0 26 22" id="twitter" xmlns="http://www.w3.org/2000/svg"><path d="M22.992 5.876c.016.224.016.447.016.67 0 6.817-5.188 14.67-14.669 14.67A14.57 14.57 0 01.422 18.9c.415.048.814.064 1.245.064 2.41 0 4.629-.814 6.4-2.202a5.165 5.165 0 01-4.82-3.576c.32.048.639.08.974.08a5.44 5.44 0 001.357-.176 5.157 5.157 0 01-4.135-5.06v-.064a5.193 5.193 0 002.33.655 5.152 5.152 0 01-2.298-4.294c0-.958.256-1.836.703-2.602a14.655 14.655 0 0010.63 5.395 5.826 5.826 0 01-.127-1.18A5.154 5.154 0 0117.837.783c1.484 0 2.825.623 3.767 1.628a10.15 10.15 0 003.272-1.245 5.142 5.142 0 01-2.267 2.842c1.038-.112 2.043-.4 2.97-.798a11.086 11.086 0 01-2.587 2.665z"/></svg><svg viewBox="0 0 12 16" id="user" xmlns="http://www.w3.org/2000/svg"><path fill-rule="evenodd" clip-rule="evenodd" d="M3.75 4.25a2.25 2.25 0 114.5 0 2.25 2.25 0 01-4.5 0zM6 .5A3.75 3.75 0 106 8 3.75 3.75 0 006 .5zM1.5 13.25A2.25 2.25 0 013.75 11h4.5a2.25 2.25 0 012.25 2.25.75.75 0 01-.75.75h-7.5a.75.75 0 01-.75-.75zM3.75 9.5A3.75 3.75 0 000 13.25a2.25 2.25 0 002.25 2.25h7.5A2.25 2.25 0 0012 13.25 3.75 3.75 0 008.25 9.5h-4.5z"/></svg><svg viewBox="0 0 34 26" id="visa" xmlns="http://www.w3.org/2000/svg"><path d="M27.225 11.613s.427 2.089.522 2.527h-1.875c.185-.5.898-2.443.898-2.443-.01.017.186-.51.298-.836l.157.752zm5.947-8.496v19.766a2.696 2.696 0 01-2.696 2.695H3.523a2.696 2.696 0 01-2.695-2.695V3.117A2.696 2.696 0 013.523.422h26.953a2.696 2.696 0 012.696 2.695zM9.392 17.223l3.548-8.715h-2.386L8.347 14.46l-.242-1.207-.786-4.01c-.129-.555-.528-.713-1.022-.735H2.664l-.039.174a8.93 8.93 0 012.37.96l2.01 7.58H9.39zm5.3.01l1.415-8.725H13.85l-1.41 8.726h2.252zm7.856-2.852c.011-.994-.595-1.752-1.893-2.375-.791-.399-1.274-.668-1.274-1.078.011-.37.41-.752 1.297-.752a3.87 3.87 0 011.679.33l.202.096.309-1.886a5.606 5.606 0 00-2.022-.371c-2.229 0-3.796 1.19-3.807 2.886-.017 1.252 1.123 1.949 1.977 2.37.87.426 1.168.707 1.168 1.083-.012.585-.708.854-1.354.854-.898 0-1.381-.14-2.116-.466l-.298-.14-.314 1.96c.527.24 1.504.454 2.515.466 2.37.005 3.914-1.169 3.93-2.977zm7.928 2.853l-1.819-8.726h-1.746c-.54 0-.95.157-1.18.724l-3.352 8.002h2.37s.387-1.078.472-1.309h2.897c.067.31.27 1.309.27 1.309h2.088z"/></svg><svg viewBox="0 0 26 18" id="youtube" xmlns="http://www.w3.org/2000/svg"><path d="M25.052 2.924A3.161 3.161 0 0022.828.685C20.866.156 13 .156 13 .156s-7.867 0-9.828.53A3.161 3.161 0 00.948 2.923C.422 4.898.422 9.018.422 9.018s0 4.12.526 6.094c.289 1.09 1.141 1.912 2.224 2.203 1.961.529 9.828.529 9.828.529s7.866 0 9.828-.529c1.083-.291 1.935-1.114 2.224-2.203.526-1.974.526-6.094.526-6.094s0-4.12-.526-6.094zm-14.625 9.834v-7.48l6.575 3.74-6.575 3.74z"/></svg></svg>